<svg width="40" height="40" viewBox="0 0 40 40" fill="none" xmlns="http://www.w3.org/2000/svg">
<path d="M20 15.3328C19.0581 15.3331 18.1375 15.5778 17.3546 16.0359C16.5716 16.494 15.9615 17.1449 15.6013 17.9064C15.2411 18.6679 15.147 19.5057 15.331 20.3139C15.515 21.1222 15.9687 21.8646 16.6348 22.4472C17.3009 23.0298 18.1495 23.4266 19.0733 23.5872C19.9971 23.7479 20.9546 23.6653 21.8247 23.3498C22.6949 23.0344 23.4386 22.5003 23.9618 21.815C24.485 21.1297 24.7643 20.3241 24.7643 19.5C24.7633 18.3948 24.261 17.3351 23.3677 16.5537C22.4744 15.7724 21.2631 15.3332 20 15.3328ZM31.1348 12.1297C30.8924 11.5921 30.5263 11.1038 30.0592 10.6951C29.5921 10.2864 29.0341 9.96605 28.4196 9.75391C26.5446 9.10625 22.0804 9.25156 20 9.25156C17.9196 9.25156 13.4598 9.10078 11.5795 9.75391C10.965 9.96605 10.407 10.2864 9.93992 10.6951C9.47285 11.1038 9.10674 11.5921 8.86429 12.1297C8.125 13.7703 8.29018 17.6805 8.29018 19.4992C8.29018 21.318 8.125 25.2234 8.86786 26.8695C9.11031 27.4072 9.47642 27.8955 9.94349 28.3041C10.4106 28.7128 10.9686 29.0332 11.583 29.2453C13.458 29.893 17.9223 29.7477 20.0036 29.7477C22.0848 29.7477 26.5429 29.8984 28.4232 29.2453C29.0376 29.0332 29.5957 28.7128 30.0628 28.3041C30.5298 27.8955 30.8959 27.4072 31.1384 26.8695C31.8839 25.2289 31.7125 21.3188 31.7125 19.5C31.7125 17.6812 31.8839 13.7766 31.1384 12.1305L31.1348 12.1297ZM20 25.9062C18.552 25.9062 17.1364 25.5305 15.9324 24.8266C14.7284 24.1227 13.79 23.1222 13.2359 21.9516C12.6817 20.781 12.5368 19.4929 12.8193 18.2502C13.1018 17.0075 13.799 15.866 14.823 14.9701C15.8469 14.0742 17.1514 13.464 18.5717 13.2168C19.9919 12.9697 21.464 13.0965 22.8018 13.5814C24.1396 14.0663 25.2831 14.8874 26.0875 15.9409C26.892 16.9944 27.3214 18.233 27.3214 19.5C27.3226 20.3416 27.134 21.1751 26.7665 21.9528C26.399 22.7305 25.8597 23.4371 25.1797 24.0322C24.4996 24.6273 23.692 25.0991 22.8032 25.4207C21.9144 25.7423 20.9618 25.9073 20 25.9062ZM27.6232 14.3203C27.2852 14.3205 26.9547 14.2329 26.6735 14.0687C26.3924 13.9045 26.1732 13.671 26.0437 13.3978C25.9143 13.1246 25.8803 12.8239 25.9461 12.5338C26.012 12.2436 26.1746 11.9771 26.4136 11.7679C26.6526 11.5587 26.9571 11.4162 27.2886 11.3585C27.6201 11.3007 27.9638 11.3303 28.2761 11.4434C28.5884 11.5566 28.8554 11.7482 29.0432 11.9942C29.231 12.2401 29.3313 12.5292 29.3313 12.825C29.3322 13.0214 29.2888 13.2161 29.2036 13.3978C29.1184 13.5795 28.993 13.7447 28.8346 13.8839C28.6763 14.0231 28.488 14.1336 28.2808 14.209C28.0735 14.2845 27.8513 14.3233 27.6268 14.3234L27.6232 14.3203ZM35.7143 2H4.28571C3.14907 2 2.05898 2.39509 1.25526 3.09835C0.451529 3.80161 0 4.75544 0 5.75L0 33.25C0 34.2446 0.451529 35.1984 1.25526 35.9016C2.05898 36.6049 3.14907 37 4.28571 37H35.7143C36.8509 37 37.941 36.6049 38.7447 35.9016C39.5485 35.1984 40 34.2446 40 33.25V5.75C40 4.75544 39.5485 3.80161 38.7447 3.09835C37.941 2.39509 36.8509 2 35.7143 2ZM34.1857 24.6562C34.0705 26.6586 33.5482 28.4328 31.8777 29.8906C30.2071 31.3484 28.1813 31.8148 25.8955 31.9102C23.5375 32.0266 16.4679 32.0266 14.1098 31.9102C11.8214 31.8094 9.80089 31.3516 8.12768 29.8906C6.45446 28.4297 5.92857 26.6547 5.81964 24.6562C5.68661 22.5922 5.68661 16.4055 5.81964 14.3438C5.93482 12.3414 6.45089 10.5672 8.12768 9.10938C9.80446 7.65156 11.8304 7.19063 14.1098 7.09531C16.4679 6.97891 23.5375 6.97891 25.8955 7.09531C28.1839 7.19609 30.2107 7.65391 31.8777 9.11484C33.5446 10.5758 34.0768 12.3508 34.1857 14.3531C34.3188 16.4094 34.3188 22.5906 34.1857 24.6562Z" fill="#7A4D3E"/>
</svg>
