<svg width="40" height="40" viewBox="0 0 40 40" fill="none" xmlns="http://www.w3.org/2000/svg">
<path d="M35.7143 2.5H4.28571C1.91964 2.5 0 4.17969 0 6.25V33.75C0 35.8203 1.91964 37.5 4.28571 37.5H35.7143C38.0804 37.5 40 35.8203 40 33.75V6.25C40 4.17969 38.0804 2.5 35.7143 2.5ZM31.3482 14.9062C31.3661 15.125 31.3661 15.3516 31.3661 15.5703C31.3661 22.3438 25.4732 30.1484 14.7054 30.1484C11.3839 30.1484 8.30357 29.3047 5.71429 27.8516C6.1875 27.8984 6.64286 27.9141 7.125 27.9141C9.86607 27.9141 12.3839 27.1016 14.3929 25.7266C11.8214 25.6797 9.66072 24.2031 8.91964 22.1719C9.82143 22.2891 10.6339 22.2891 11.5625 22.0781C8.88393 21.6016 6.875 19.5391 6.875 17.0469V16.9844C7.65179 17.3672 8.5625 17.6016 9.51786 17.6328C8.71467 17.1653 8.05623 16.5311 7.60131 15.7868C7.14639 15.0425 6.90914 14.2113 6.91071 13.3672C6.91071 12.4141 7.19643 11.5391 7.70536 10.7812C10.5893 13.8906 14.9196 15.9219 19.7768 16.1406C18.9464 12.6641 21.9196 9.84375 25.4911 9.84375C27.1786 9.84375 28.6964 10.4609 29.7679 11.4609C31.0893 11.2422 32.3571 10.8125 33.4821 10.2266C33.0446 11.4141 32.125 12.4141 30.9107 13.0469C32.0893 12.9375 33.2321 12.6484 34.2857 12.25C33.4911 13.2734 32.4911 14.1797 31.3482 14.9062Z" fill="#7A4D3E"/>
</svg>
